<svg width="33" height="33" viewBox="0 0 33 33" fill="none" xmlns="http://www.w3.org/2000/svg">
<path d="M13.0625 20.6459C18.6543 20.6459 23.375 21.566 23.375 25.1195C23.375 28.6731 18.6241 29.5625 13.0625 29.5625C7.47066 29.5625 2.75 28.641 2.75 25.0889C2.75 21.5353 7.49956 20.6459 13.0625 20.6459ZM26.1236 10.3125C26.8059 10.3125 27.3597 10.8755 27.3597 11.566V13.1833H29.0139C29.6948 13.1833 30.25 13.7463 30.25 14.4368C30.25 15.1273 29.6948 15.6903 29.0139 15.6903H27.3597V17.309C27.3597 17.9995 26.8059 18.5625 26.1236 18.5625C25.4427 18.5625 24.8875 17.9995 24.8875 17.309V15.6903H23.2361C22.5538 15.6903 22 15.1273 22 14.4368C22 13.7463 22.5538 13.1833 23.2361 13.1833H24.8875V11.566C24.8875 10.8755 25.4427 10.3125 26.1236 10.3125ZM13.0625 3.4375C16.85 3.4375 19.8861 6.51287 19.8861 10.3494C19.8861 14.1859 16.85 17.2613 13.0625 17.2613C9.27496 17.2613 6.23888 14.1859 6.23888 10.3494C6.23888 6.51287 9.27496 3.4375 13.0625 3.4375Z" fill="black"/>
</svg>
