<svg width="25" height="23" viewBox="0 0 25 23" fill="none" xmlns="http://www.w3.org/2000/svg">
<path d="M5.31501 22.45C4.07467 22.4501 2.88401 21.9626 2.00001 21.0925L1.90251 20.995C1.45837 20.5616 1.10546 20.0437 0.864591 19.4718C0.623721 18.8999 0.49976 18.2856 0.500014 17.665C0.498444 16.9932 0.630219 16.3277 0.887703 15.7072C1.14519 15.0866 1.52326 14.5234 2.00001 14.05L13.625 2.55249C14.8062 1.3227 16.4231 0.606059 18.1276 0.55696C19.832 0.50786 21.4875 1.13023 22.7375 2.28999C23.3013 2.85234 23.7474 3.52128 24.05 4.25781C24.3526 4.99434 24.5056 5.78374 24.5 6.58C24.4933 7.46927 24.311 8.34847 23.9635 9.16706C23.616 9.98565 23.1101 10.7275 22.475 11.35L12.0275 21.7C11.9626 21.7874 11.8794 21.8595 11.7837 21.9115C11.6881 21.9635 11.5823 21.994 11.4737 22.001C11.365 22.008 11.2562 21.9912 11.1547 21.9519C11.0532 21.9126 10.9614 21.8516 10.8859 21.7733C10.8103 21.695 10.7527 21.6011 10.717 21.4982C10.6813 21.3954 10.6685 21.286 10.6794 21.1777C10.6902 21.0694 10.7245 20.9647 10.7799 20.871C10.8353 20.7773 10.9104 20.6968 11 20.635L21.4175 10.285C21.9123 9.80205 22.3067 9.22614 22.5783 8.59034C22.8499 7.95453 22.9932 7.27134 23 6.58C23.0054 5.98168 22.8915 5.38829 22.6649 4.83454C22.4382 4.28079 22.1034 3.7778 21.68 3.35499C20.7109 2.47214 19.4339 2.00501 18.1238 2.0541C16.8138 2.10319 15.5754 2.66459 14.675 3.61749L3.08751 15.115C2.74605 15.4466 2.47402 15.8428 2.28731 16.2806C2.1006 16.7184 2.00293 17.189 2.00001 17.665C1.99841 18.0829 2.07979 18.497 2.23943 18.8832C2.39908 19.2695 2.63381 19.6202 2.93001 19.915L3.02751 20.0125C3.69858 20.6304 4.58546 20.9602 5.49722 20.9307C6.40899 20.9013 7.27274 20.515 7.90251 19.855L17.915 9.955C18.1044 9.76355 18.2536 9.53626 18.3541 9.28642C18.4545 9.03659 18.5041 8.76923 18.5 8.5C18.5017 8.26614 18.4568 8.0343 18.3679 7.81798C18.2791 7.60166 18.1481 7.40518 17.9825 7.24C17.6038 6.89268 17.1036 6.70823 16.59 6.72647C16.0765 6.74472 15.5907 6.96418 15.2375 7.3375L8.33751 14.1775C8.19629 14.3177 8.00514 14.3961 7.80611 14.3954C7.60709 14.3947 7.4165 14.315 7.27626 14.1737C7.13603 14.0325 7.05764 13.8414 7.05835 13.6423C7.05905 13.4433 7.13879 13.2527 7.28001 13.1125L14.21 6.24999C14.8452 5.59924 15.7108 5.22429 16.6201 5.20605C17.5293 5.18781 18.4092 5.52774 19.07 6.15249C19.3739 6.46187 19.6128 6.82898 19.7725 7.23216C19.9322 7.63534 20.0096 8.06643 20 8.5C19.9992 8.96688 19.9053 9.42892 19.7237 9.85906C19.5421 10.2892 19.2765 10.6788 18.9425 11.005L8.96001 20.935C7.99243 21.9011 6.68229 22.4456 5.31501 22.45Z" fill="black"/>
</svg>
