<svg width="21" height="26" viewBox="0 0 21 26" fill="none" xmlns="http://www.w3.org/2000/svg">
<path d="M14.3375 0.500092C17.725 0.500092 20.4625 1.83759 20.5 5.23759V24.2126C20.5 24.4251 20.45 24.6376 20.35 24.8251C20.1875 25.1251 19.9125 25.3501 19.575 25.4501C19.25 25.5501 18.8875 25.5001 18.5875 25.3251L10.4875 21.2751L2.375 25.3251C2.18875 25.4238 1.975 25.4876 1.7625 25.4876C1.0625 25.4876 0.5 24.9126 0.5 24.2126V5.23759C0.5 1.83759 3.25 0.500092 6.625 0.500092H14.3375ZM15.1875 8.05009H5.775C5.2375 8.05009 4.8 8.48759 4.8 9.03759C4.8 9.58634 5.2375 10.0251 5.775 10.0251H15.1875C15.725 10.0251 16.1625 9.58634 16.1625 9.03759C16.1625 8.48759 15.725 8.05009 15.1875 8.05009Z" fill="#F9D422"/>
</svg>
