<svg width="16" height="14" viewBox="0 0 16 14" fill="none" xmlns="http://www.w3.org/2000/svg">
<path d="M0.5 0.99475C0.501373 0.797784 0.580175 0.609263 0.719385 0.469913C0.858594 0.330563 1.04704 0.251571 1.244 0.25H14.756C15.167 0.25 15.5 0.58375 15.5 0.99475V13.0052C15.4986 13.2022 15.4198 13.3907 15.2806 13.5301C15.1414 13.6694 14.953 13.7484 14.756 13.75H1.244C1.04661 13.7498 0.857373 13.6712 0.717867 13.5316C0.578362 13.392 0.5 13.2026 0.5 13.0052V0.99475ZM8 9.25C7.40326 9.25 6.83097 9.01295 6.40901 8.59099C5.98705 8.16903 5.75 7.59674 5.75 7C5.75 6.40326 5.98705 5.83097 6.40901 5.40901C6.83097 4.98705 7.40326 4.75 8 4.75C8.59674 4.75 9.16903 4.98705 9.59099 5.40901C10.0129 5.83097 10.25 6.40326 10.25 7C10.25 7.59674 10.0129 8.16903 9.59099 8.59099C9.16903 9.01295 8.59674 9.25 8 9.25ZM8 10.75C8.99456 10.75 9.94839 10.3549 10.6516 9.65165C11.3549 8.94839 11.75 7.99456 11.75 7C11.75 6.00544 11.3549 5.05161 10.6516 4.34835C9.94839 3.64509 8.99456 3.25 8 3.25C7.00544 3.25 6.05161 3.64509 5.34835 4.34835C4.64509 5.05161 4.25 6.00544 4.25 7C4.25 7.99456 4.64509 8.94839 5.34835 9.65165C6.05161 10.3549 7.00544 10.75 8 10.75ZM12.5 1.75V3.25H14V1.75H12.5Z" fill="black"/>
</svg>
