<svg width="33" height="33" viewBox="0 0 33 33" fill="none" xmlns="http://www.w3.org/2000/svg">
<path d="M22.9204 2.75055C27.5967 2.75055 30.2367 5.40292 30.2505 10.0793V22.9218C30.2505 27.5968 27.5967 30.2505 22.9204 30.2505H10.0792C5.40286 30.2505 2.75049 27.5968 2.75049 22.9218V10.0793C2.75049 5.40292 5.40286 2.75055 10.0792 2.75055H22.9204ZM17.188 8.4293C16.8016 8.19555 16.3341 8.19555 15.9642 8.4293C15.5916 8.66167 15.3867 9.0893 15.4266 9.51555V23.5268C15.4967 24.118 15.9904 24.558 16.5679 24.558C17.1605 24.558 17.6541 24.118 17.7091 23.5268V9.51555C17.7641 9.0893 17.5592 8.66167 17.188 8.4293ZM10.7667 12.9393C10.3955 12.7055 9.92661 12.7055 9.55674 12.9393C9.18411 13.173 8.97924 13.5979 9.02049 14.0255V23.5268C9.07411 24.118 9.56911 24.558 10.1604 24.558C10.753 24.558 11.2466 24.118 11.3016 23.5268V14.0255C11.3442 13.5979 11.1366 13.173 10.7667 12.9393ZM23.4979 17.9305C23.128 17.6968 22.6605 17.6968 22.2755 17.9305C21.9029 18.1643 21.698 18.5754 21.753 19.0168V23.5268C21.808 24.118 22.3016 24.558 22.8942 24.558C23.4717 24.558 23.9654 24.118 24.0355 23.5268V19.0168C24.0754 18.5754 23.8705 18.1643 23.4979 17.9305Z" fill="black"/>
</svg>
