<svg width="33" height="33" viewBox="0 0 33 33" fill="none" xmlns="http://www.w3.org/2000/svg">
<path d="M16.5275 2.75C24.3375 2.75 30.25 9.15336 30.25 16.4793C30.25 24.9758 23.32 30.25 16.5 30.25C14.245 30.25 11.7425 29.6441 9.735 28.4598C9.03375 28.0329 8.4425 27.7162 7.68625 27.9641L4.90875 28.7903C4.2075 29.0106 3.575 28.4598 3.78125 27.7162L4.7025 24.6316C4.85375 24.2047 4.82625 23.7502 4.60625 23.3922C3.42375 21.2164 2.75 18.8341 2.75 16.5207C2.75 9.27729 8.53875 2.75 16.5275 2.75ZM22.8113 14.7718C21.835 14.7718 21.0513 15.5567 21.0513 16.5344C21.0513 17.4984 21.835 18.2971 22.8113 18.2971C23.7875 18.2971 24.5712 17.4984 24.5712 16.5344C24.5712 15.5567 23.7875 14.7718 22.8113 14.7718ZM16.4725 14.7718C15.51 14.758 14.7125 15.5567 14.7125 16.5207C14.7125 17.4984 15.4962 18.2833 16.4725 18.2971C17.4487 18.2971 18.2325 17.4984 18.2325 16.5344C18.2325 15.5567 17.4487 14.7718 16.4725 14.7718ZM10.1337 14.7718C9.1575 14.7718 8.37375 15.5567 8.37375 16.5344C8.37375 17.4984 9.17125 18.2971 10.1337 18.2971C11.11 18.2833 11.8938 17.4984 11.8938 16.5344C11.8938 15.5567 11.11 14.7718 10.1337 14.7718Z" fill="black"/>
</svg>
