<svg width="14" height="16" viewBox="0 0 14 16" fill="none" xmlns="http://www.w3.org/2000/svg">
<path d="M13.75 5.75V14.7447C13.7507 14.8432 13.732 14.9409 13.6949 15.0322C13.6579 15.1234 13.6032 15.2065 13.534 15.2766C13.4649 15.3468 13.3826 15.4026 13.2919 15.4409C13.2011 15.4792 13.1037 15.4993 13.0052 15.5H0.99475C0.79736 15.5 0.608043 15.4216 0.468397 15.2821C0.328751 15.1426 0.250199 14.9534 0.25 14.756V1.244C0.25 0.84125 0.58525 0.5 0.9985 0.5H8.5V5C8.5 5.19891 8.57902 5.38968 8.71967 5.53033C8.86032 5.67098 9.05109 5.75 9.25 5.75H13.75ZM13.75 4.25H10V0.50225L13.75 4.25ZM4 4.25V5.75H6.25V4.25H4ZM4 7.25V8.75H10V7.25H4ZM4 10.25V11.75H10V10.25H4Z" fill="black"/>
</svg>
