<svg width="33" height="33" viewBox="0 0 33 33" fill="none" xmlns="http://www.w3.org/2000/svg">
<path d="M30.815 28.9579C31.8132 28.9579 32.625 29.7803 32.625 30.7915C32.625 31.8045 31.8132 32.625 30.815 32.625H20.5844C19.5863 32.625 18.7745 31.8045 18.7745 30.7915C18.7745 29.7803 19.5863 28.9579 20.5844 28.9579H30.815ZM23.7202 1.62749L26.3629 3.72682C27.4466 4.57426 28.1691 5.69133 28.4162 6.86619C28.7014 8.15853 28.3972 9.42776 27.5417 10.5256L11.7994 30.8833C11.0769 31.8078 10.0122 32.3278 8.87147 32.3471L2.59737 32.4241C2.25515 32.4241 1.96996 32.193 1.89392 31.8656L0.467985 25.6831C0.220823 24.5468 0.467985 23.372 1.19046 22.4667L12.3507 8.02179C12.5409 7.79067 12.8831 7.75407 13.1112 7.92549L17.8073 11.6619C18.1115 11.9123 18.5298 12.0471 18.9671 11.9893C19.8987 11.8738 20.5261 11.0263 20.431 10.1211C20.374 9.65888 20.1458 9.27368 19.8416 8.98478C19.7466 8.90774 15.2787 5.3254 15.2787 5.3254C14.9935 5.09428 14.9364 4.67056 15.1646 4.38359L16.9327 2.08973C18.5678 -0.00960511 21.4197 -0.202204 23.7202 1.62749Z" fill="black"/>
</svg>
