<svg width="22" height="21" viewBox="0 0 22 21" fill="none" xmlns="http://www.w3.org/2000/svg">
<path fill-rule="evenodd" clip-rule="evenodd" d="M18.0104 12.5638C20.0839 12.5638 21.7707 14.2422 21.7707 16.3048C21.7707 18.3675 20.0839 20.0458 18.0104 20.0458C15.9357 20.0458 14.2476 18.3675 14.2476 16.3048C14.2476 14.2422 15.9357 12.5638 18.0104 12.5638ZM18.0104 14.3763C16.935 14.3763 16.0601 15.2415 16.0601 16.3048C16.0601 17.3694 16.935 18.2333 18.0104 18.2333C19.0846 18.2333 19.9582 17.3694 19.9582 16.3048C19.9582 15.2415 19.0846 14.3763 18.0104 14.3763ZM9.18036 15.4455C9.68061 15.4455 10.0866 15.8515 10.0866 16.3517C10.0866 16.852 9.68061 17.258 9.18036 17.258H1.56665C1.0664 17.258 0.660404 16.852 0.660404 16.3517C0.660404 15.8515 1.0664 15.4455 1.56665 15.4455H9.18036ZM4.38654 0.833344C6.46125 0.833344 8.14808 2.51293 8.14808 4.57555C8.14808 6.63818 6.46125 8.31534 4.38654 8.31534C2.31304 8.31534 0.625 6.63818 0.625 4.57555C0.625 2.51293 2.31304 0.833344 4.38654 0.833344ZM4.38654 2.64584C3.31233 2.64584 2.4375 3.51101 2.4375 4.57555C2.4375 5.63889 3.31233 6.50284 4.38654 6.50284C5.46196 6.50284 6.33558 5.63889 6.33558 4.57555C6.33558 3.51101 5.46196 2.64584 4.38654 2.64584ZM20.1892 3.73383C20.6895 3.73383 21.0955 4.13983 21.0955 4.64008C21.0955 5.14033 20.6895 5.54633 20.1892 5.54633H12.5767C12.0765 5.54633 11.6705 5.14033 11.6705 4.64008C11.6705 4.13983 12.0765 3.73383 12.5767 3.73383H20.1892Z" fill="black"/>
</svg>
