<svg width="14" height="18" viewBox="0 0 14 18" fill="none" xmlns="http://www.w3.org/2000/svg">
<path d="M6.99977 0.75C7.49222 0.75 7.97986 0.846997 8.43483 1.03545C8.8898 1.22391 9.3032 1.50013 9.65142 1.84835C9.99964 2.19657 10.2759 2.60997 10.4643 3.06494C10.6528 3.51991 10.7498 4.00754 10.7498 4.5V7.5C10.7498 8.49456 10.3547 9.44839 9.65142 10.1517C8.94816 10.8549 7.99433 11.25 6.99977 11.25C6.0052 11.25 5.05138 10.8549 4.34812 10.1517C3.64485 9.44839 3.24977 8.49456 3.24977 7.5V4.5C3.24977 3.50544 3.64485 2.55161 4.34812 1.84835C5.05138 1.14509 6.0052 0.75 6.99977 0.75ZM0.291016 8.25H1.80227C1.98399 9.49859 2.60917 10.64 3.56344 11.4655C4.51771 12.2909 5.73728 12.7452 6.99902 12.7452C8.26076 12.7452 9.48032 12.2909 10.4346 11.4655C11.3889 10.64 12.014 9.49859 12.1958 8.25H13.7078C13.5372 9.77154 12.8547 11.19 11.7722 12.2727C10.6896 13.3553 9.27128 14.038 7.74977 14.2088V17.25H6.24977V14.2088C4.72812 14.0382 3.3096 13.3556 2.2269 12.2729C1.14419 11.1902 0.461575 9.77165 0.291016 8.25Z" fill="black"/>
</svg>
