<svg width="23" height="27" viewBox="0 0 23 27" fill="none" xmlns="http://www.w3.org/2000/svg">
<path fill-rule="evenodd" clip-rule="evenodd" d="M9.47511 23.2947C10.101 23.9919 10.9046 24.375 11.7383 24.375H11.7395C12.5769 24.375 13.3841 23.9919 14.0112 23.2935C14.3471 22.9226 14.9199 22.8924 15.2908 23.2271C15.663 23.5618 15.6932 24.1357 15.3585 24.5067C14.3821 25.5906 13.0977 26.1875 11.7395 26.1875H11.7371C10.3826 26.1863 9.10052 25.5894 8.12782 24.5055C7.79311 24.1345 7.82332 23.5606 8.19548 23.2271C8.56765 22.8911 9.1404 22.9214 9.47511 23.2947ZM11.7985 0.208313C17.1695 0.208313 20.7776 4.39156 20.7776 8.2981C20.7776 10.3076 21.2887 11.1594 21.8313 12.0633C22.3678 12.955 22.9756 13.9676 22.9756 15.8816C22.5539 20.7717 17.4487 21.1705 11.7985 21.1705C6.14832 21.1705 1.04191 20.7717 0.625016 15.9589C0.621407 13.9676 1.2292 12.955 1.7657 12.0633L1.9551 11.7445C2.42143 10.943 2.81937 10.0712 2.81937 8.2981C2.81937 4.39156 6.42745 0.208313 11.7985 0.208313ZM11.7985 2.02081C7.57537 2.02081 4.63187 5.32923 4.63187 8.2981C4.63187 10.8102 3.93466 11.9714 3.31841 12.9961C2.8242 13.819 2.43391 14.4691 2.43391 15.8816C2.6357 18.1605 4.14007 19.358 11.7985 19.358C19.4146 19.358 20.9661 18.1074 21.1667 15.8031C21.1631 14.4691 20.7728 13.819 20.2786 12.9961C19.6623 11.9714 18.9651 10.8102 18.9651 8.2981C18.9651 5.32923 16.0216 2.02081 11.7985 2.02081Z" fill="black"/>
</svg>
