<svg width="118" height="118" viewBox="0 0 118 118" fill="none" xmlns="http://www.w3.org/2000/svg">
<path d="M59 0.375C74.5483 0.375 89.4598 6.55154 100.454 17.5459C111.448 28.5402 117.625 43.4517 117.625 59C117.625 74.5483 111.448 89.4598 100.454 100.454C89.4598 111.448 74.5483 117.625 59 117.625C43.4517 117.625 28.5402 111.448 17.5459 100.454C6.55154 89.4598 0.375 74.5483 0.375 59C0.375 43.4517 6.55154 28.5402 17.5459 17.5459C28.5402 6.55154 43.4517 0.375 59 0.375ZM59 109.25C72.3271 109.25 85.1084 103.956 94.5321 94.5321C103.956 85.1084 109.25 72.3271 109.25 59C109.25 45.6729 103.956 32.8916 94.5321 23.4679C85.1084 14.0442 72.3271 8.75 59 8.75C45.6729 8.75 32.8916 14.0442 23.4679 23.4679C14.0442 32.8916 8.75 45.6729 8.75 59C8.75 72.3271 14.0442 85.1084 23.4679 94.5321C32.8916 103.956 45.6729 109.25 59 109.25ZM46.4375 38.0625C49.2292 38.0625 50.625 39.4583 50.625 42.25V75.75C50.625 78.5417 49.2292 79.9375 46.4375 79.9375C43.6458 79.9375 42.25 78.5417 42.25 75.75V42.25C42.25 39.4583 43.6458 38.0625 46.4375 38.0625ZM71.5625 38.0625C74.3542 38.0625 75.75 39.4583 75.75 42.25V75.75C75.75 78.5417 74.3542 79.9375 71.5625 79.9375C68.7708 79.9375 67.375 78.5417 67.375 75.75V42.25C67.375 39.4583 68.7708 38.0625 71.5625 38.0625Z" fill="black"/>
</svg>
