<svg width="18" height="12" viewBox="0 0 18 12" fill="none" xmlns="http://www.w3.org/2000/svg">
<path d="M12 0C12.1989 0 12.3897 0.0790178 12.5303 0.21967C12.671 0.360322 12.75 0.551088 12.75 0.75V3.9L16.6598 1.1625C16.716 1.12309 16.7819 1.09987 16.8504 1.09538C16.9189 1.09088 16.9874 1.10528 17.0483 1.137C17.1092 1.16872 17.1602 1.21654 17.1957 1.27526C17.2313 1.33398 17.2501 1.40134 17.25 1.47V10.53C17.2501 10.5987 17.2313 10.666 17.1957 10.7247C17.1602 10.7835 17.1092 10.8313 17.0483 10.863C16.9874 10.8947 16.9189 10.9091 16.8504 10.9046C16.7819 10.9001 16.716 10.8769 16.6598 10.8375L12.75 8.1V11.25C12.75 11.4489 12.671 11.6397 12.5303 11.7803C12.3897 11.921 12.1989 12 12 12H1.5C1.30109 12 1.11032 11.921 0.96967 11.7803C0.829018 11.6397 0.75 11.4489 0.75 11.25V0.75C0.75 0.551088 0.829018 0.360322 0.96967 0.21967C1.11032 0.0790178 1.30109 0 1.5 0H12ZM5.55 3.62175C5.48084 3.62174 5.4138 3.64562 5.36023 3.68935C5.30665 3.73309 5.26983 3.79399 5.256 3.86175L5.25 3.921V8.0775C5.24999 8.12608 5.26179 8.17394 5.28437 8.21696C5.30694 8.25998 5.33963 8.29687 5.37962 8.32446C5.4196 8.35205 5.46569 8.36952 5.51392 8.37536C5.56215 8.3812 5.61108 8.37525 5.6565 8.358L5.71125 8.331L8.9775 6.252C9.01561 6.22762 9.04772 6.19493 9.07141 6.15639C9.0951 6.11784 9.10977 6.07444 9.11431 6.02943C9.11885 5.98441 9.11316 5.93895 9.09765 5.89645C9.08214 5.85395 9.05722 5.81551 9.02475 5.784L8.9775 5.7465L5.71125 3.6675C5.66286 3.6375 5.60693 3.62189 5.55 3.6225V3.62175Z" fill="black"/>
</svg>
