<svg width="24" height="26" viewBox="0 0 24 26" fill="none" xmlns="http://www.w3.org/2000/svg">
<path fill-rule="evenodd" clip-rule="evenodd" d="M12.8229 0.417297C13.688 0.417297 14.529 0.772547 15.132 1.39001C15.7337 2.01109 16.066 2.86296 16.0406 3.72692C16.0431 3.92146 16.1071 4.14621 16.2231 4.34317C16.4152 4.66942 16.7185 4.899 17.0786 4.99325C17.4387 5.08267 17.8157 5.03434 18.1359 4.84463C19.6826 3.96134 21.6509 4.49059 22.5342 6.02517L23.287 7.32896C23.3064 7.364 23.3233 7.39784 23.3378 7.43288C24.1377 8.9445 23.6036 10.8476 22.1173 11.7164C21.9011 11.8409 21.7258 12.0149 21.605 12.2251C21.4177 12.5502 21.3658 12.9368 21.46 13.2921C21.5567 13.6546 21.7875 13.9555 22.1125 14.1415C22.846 14.5633 23.3933 15.2738 23.6121 16.0942C23.8308 16.9135 23.7111 17.8028 23.2846 18.5362L22.4823 19.8727C21.599 21.3903 19.6306 21.916 18.0996 21.0315C17.8954 20.9142 17.6598 20.8502 17.4254 20.8442H17.4181C17.0689 20.8442 16.7101 20.9928 16.4491 21.2526C16.1844 21.5172 16.0394 21.87 16.0419 22.2446C16.0334 24.0197 14.5894 25.4552 12.8229 25.4552H11.3088C9.53377 25.4552 8.08981 24.0124 8.08981 22.2374C8.08739 22.0187 8.02456 21.7915 7.90735 21.5945C7.71764 21.2635 7.41072 21.0266 7.05668 20.9324C6.70506 20.8381 6.3196 20.8901 6.00302 21.0737C5.24418 21.4967 4.35122 21.5994 3.53439 21.3698C2.71877 21.139 2.01431 20.5783 1.60106 19.8352L0.845849 18.5338C-0.0374431 17.0017 0.488182 15.0381 2.01793 14.1536C2.45172 13.9035 2.72118 13.4371 2.72118 12.9368C2.72118 12.4366 2.45172 11.969 2.01793 11.7188C0.486974 10.8295 -0.0374431 8.86113 0.84464 7.32896L1.66389 5.98409C2.5351 4.46884 4.50468 3.93475 6.04047 4.81684C6.24952 4.9413 6.47668 5.00413 6.70747 5.00655C7.46027 5.00655 8.08981 4.38546 8.10189 3.6218C8.09706 2.77959 8.42935 1.97121 9.03472 1.36101C9.64252 0.752006 10.4497 0.417297 11.3088 0.417297H12.8229ZM12.8229 2.2298H11.3088C10.9342 2.2298 10.5838 2.376 10.3192 2.63942C10.0558 2.90405 9.91197 3.25567 9.91439 3.63025C9.88902 5.39684 8.44506 6.81905 6.6966 6.81905C6.13593 6.813 5.59581 6.66196 5.12697 6.38163C4.46843 6.00705 3.6081 6.23784 3.22264 6.90846L2.4046 8.25334C2.03002 8.90342 2.2596 9.76254 2.9266 10.1504C3.91622 10.7232 4.53368 11.7913 4.53368 12.9368C4.53368 14.0823 3.91622 15.1493 2.92418 15.7233C2.26081 16.1075 2.03122 16.9618 2.41547 17.6264L3.17793 18.941C3.36643 19.2806 3.67456 19.5259 4.03102 19.6262C4.38627 19.7252 4.77777 19.683 5.10402 19.5017C5.58372 19.2202 6.14197 19.074 6.70264 19.074C6.97935 19.074 7.25606 19.109 7.52672 19.1815C8.34356 19.4014 9.05285 19.9476 9.47335 20.681C9.74643 21.1414 9.89747 21.6791 9.90231 22.2277C9.90231 23.0131 10.5331 23.6427 11.3088 23.6427H12.8229C13.595 23.6427 14.2257 23.0167 14.2293 22.2446C14.2245 21.3915 14.558 20.5807 15.1682 19.9705C15.77 19.3688 16.611 19.0075 17.452 19.0317C18.003 19.045 18.5334 19.1936 19.0011 19.4594C19.6741 19.8449 20.5332 19.6153 20.9223 18.9507L21.7246 17.6131C21.9035 17.305 21.9554 16.9183 21.86 16.5618C21.7657 16.2054 21.5289 15.896 21.2099 15.7136C20.4631 15.2834 19.9303 14.5898 19.7091 13.7585C19.4904 12.9429 19.6101 12.0523 20.0366 11.3189C20.3145 10.8355 20.7217 10.4283 21.2099 10.148C21.8648 9.76496 22.0944 8.90825 21.7138 8.24125C21.6981 8.21467 21.6836 8.18688 21.6715 8.15788L20.9634 6.93021C20.5779 6.25959 19.72 6.0288 19.047 6.41184C18.3196 6.842 17.4544 6.96525 16.6231 6.74654C15.7929 6.53146 15.0969 6.00584 14.6631 5.26392C14.3852 4.79992 14.2342 4.2598 14.2293 3.71C14.2402 3.29675 14.0952 2.9258 13.8318 2.65392C13.5696 2.38326 13.2011 2.2298 12.8229 2.2298ZM12.0711 8.84433C14.3271 8.84433 16.1626 10.681 16.1626 12.937C16.1626 15.1929 14.3271 17.0272 12.0711 17.0272C9.81519 17.0272 7.97973 15.1929 7.97973 12.937C7.97973 10.681 9.81519 8.84433 12.0711 8.84433ZM12.0711 10.6568C10.8145 10.6568 9.79223 11.6803 9.79223 12.937C9.79223 14.1936 10.8145 15.2147 12.0711 15.2147C13.3278 15.2147 14.3501 14.1936 14.3501 12.937C14.3501 11.6803 13.3278 10.6568 12.0711 10.6568Z" fill="black"/>
</svg>
