<svg width="31" height="31" viewBox="0 0 31 31" fill="none" xmlns="http://www.w3.org/2000/svg">
<path d="M8.26653 15.5L14.4665 20.6667L22.7332 10.3333M15.4999 29.9667C13.6001 29.9667 11.7189 29.5925 9.96371 28.8655C8.20854 28.1384 6.61374 27.0728 5.27039 25.7295C3.92704 24.3861 2.86143 22.7913 2.13441 21.0362C1.40739 19.281 1.0332 17.3998 1.0332 15.5C1.0332 13.6002 1.40739 11.719 2.13441 9.96385C2.86143 8.20867 3.92704 6.61388 5.27039 5.27053C6.61374 3.92717 8.20854 2.86157 9.96371 2.13455C11.7189 1.40753 13.6001 1.03334 15.4999 1.03334C19.3367 1.03334 23.0163 2.5575 25.7293 5.27053C28.4424 7.98355 29.9665 11.6632 29.9665 15.5C29.9665 19.3368 28.4424 23.0164 25.7293 25.7295C23.0163 28.4425 19.3367 29.9667 15.4999 29.9667Z" stroke="#2FAE1B" stroke-width="3.2"/>
</svg>
