<svg width="33" height="33" viewBox="0 0 33 33" fill="none" xmlns="http://www.w3.org/2000/svg">
<path d="M16.4299 19.992C21.1478 19.992 25.1762 20.7399 25.1762 23.733C25.1762 26.7248 21.1736 27.5 16.4299 27.5C11.712 27.5 7.68362 26.752 7.68362 23.7602C7.68362 20.7672 11.6862 19.992 16.4299 19.992ZM23.9732 18.1897C25.7769 18.1563 27.716 18.4039 28.4326 18.5798C29.9506 18.8782 30.9491 19.4875 31.3628 20.3729C31.7124 21.0998 31.7124 21.9431 31.3628 22.6688C30.7299 24.0421 28.6899 24.4829 27.897 24.5968C27.7332 24.6216 27.6015 24.4792 27.6187 24.3145C28.0238 20.5091 24.8018 18.7049 23.9683 18.29C23.9326 18.2714 23.9252 18.243 23.9289 18.2256C23.9314 18.2132 23.9461 18.1934 23.9732 18.1897ZM8.68805 18.1871L9.0277 18.1902C9.05479 18.1939 9.06833 18.2137 9.07079 18.2249C9.07448 18.2435 9.0671 18.2707 9.03262 18.2905C8.19788 18.7053 4.97589 20.5096 5.38095 24.3138C5.39818 24.4797 5.26768 24.6209 5.10393 24.5973C4.31105 24.4834 2.27099 24.0426 1.63816 22.6693C1.28728 21.9424 1.28728 21.1003 1.63816 20.3734C2.05184 19.488 3.0491 18.8787 4.56714 18.579C5.28492 18.4044 7.22279 18.1568 9.0277 18.1902L8.68805 18.1871ZM16.4299 5.5C19.6421 5.5 22.2177 8.08812 22.2177 11.3202C22.2177 14.551 19.6421 17.1416 16.4299 17.1416C13.2178 17.1416 10.6421 14.551 10.6421 11.3202C10.6421 8.08812 13.2178 5.5 16.4299 5.5ZM24.2872 6.47061C27.3897 6.47061 29.8262 9.4067 28.9964 12.6771C28.4362 14.8789 26.4085 16.3414 24.1493 16.2819C23.9227 16.2757 23.6999 16.2547 23.4844 16.2175C23.3281 16.1903 23.2493 16.0132 23.3379 15.8819C24.1998 14.6065 24.691 13.0722 24.691 11.4252C24.691 9.70637 24.1542 8.10397 23.2222 6.7901C23.1927 6.74923 23.1705 6.68608 23.2 6.63902C23.2247 6.60063 23.2702 6.58082 23.3133 6.57091C23.6273 6.50652 23.9498 6.47061 24.2872 6.47061ZM8.7119 6.47048C9.04924 6.47048 9.37181 6.50639 9.687 6.57079C9.72886 6.58069 9.77564 6.60175 9.80026 6.6389C9.82858 6.68595 9.80765 6.74911 9.7781 6.78997C8.8461 8.10385 8.30931 9.70625 8.30931 11.4251C8.30931 13.072 8.80055 14.6063 9.66237 15.8818C9.75102 16.0131 9.67222 16.1902 9.51586 16.2174C9.29917 16.2558 9.07756 16.2756 8.85102 16.2818C6.59181 16.3412 4.56406 14.8788 4.00387 12.677C3.17283 9.40657 5.60933 6.47048 8.7119 6.47048Z" fill="black"/>
</svg>
