<svg width="33" height="33" viewBox="0 0 33 33" fill="none" xmlns="http://www.w3.org/2000/svg">
<path d="M29.9886 17.6209C30.0877 17.6766 30.1075 17.7947 30.1114 17.8397L30.1124 17.8577L30.0024 24.9589C30.0024 27.7915 27.8076 30.1015 25.0439 30.2431L24.7748 30.25H8.21148C5.41282 30.25 3.13057 28.0286 2.99066 25.2313L2.98387 24.9589L2.88757 17.8577C2.88757 17.8577 2.88757 17.6906 3.01138 17.6209C3.12144 17.5513 3.259 17.6349 3.27276 17.6488C6.05165 19.5146 9.39457 20.7538 12.9026 21.269C13.3978 21.3387 13.8931 21.0184 14.0306 20.5171C14.3144 19.4467 15.1906 18.719 16.2625 18.6322L16.4794 18.6235H16.5206C17.69 18.6235 18.6667 19.3754 18.9694 20.5171C19.1069 21.0184 19.6022 21.3387 20.0974 21.269C23.6054 20.7538 26.9483 19.5146 29.7272 17.6488C29.7272 17.6488 29.7548 17.6349 29.7823 17.6209C29.8373 17.5931 29.9198 17.5792 29.9886 17.6209ZM16.4931 20.6146C15.9761 20.6146 15.54 21.0124 15.4709 21.5184L15.4614 21.6589V23.4551C15.4614 24.0399 15.9291 24.4994 16.4931 24.4994C17.0228 24.4994 17.4484 24.1133 17.5156 23.5985L17.5249 23.4551V21.6589C17.5249 21.088 17.0709 20.6146 16.4931 20.6146ZM18.2678 2.75C20.3313 2.75 22.0234 4.32341 22.2848 6.34239H25.0086C27.8976 6.34239 30.25 8.72339 30.25 11.6474C30.25 11.6474 30.1675 12.8853 30.1399 14.6091C30.1372 14.7455 30.0712 14.8792 29.9625 14.9599C29.3008 15.4487 28.6955 15.8525 28.6404 15.8803C26.3568 17.412 23.7031 18.4897 20.8761 19.0257C20.6917 19.0619 20.5101 18.9659 20.4166 18.8016C19.6242 17.4287 18.1439 16.5347 16.4931 16.5347C14.8533 16.5347 13.3593 17.4189 12.5435 18.7932C12.4486 18.9547 12.2698 19.048 12.0868 19.0132C9.28314 18.4757 6.62944 17.3994 4.35955 15.8942L3.03889 14.9753C2.92884 14.9056 2.86006 14.7803 2.86006 14.6411C2.81878 13.931 2.75 11.6474 2.75 11.6474C2.75 8.72339 5.10243 6.34239 7.99137 6.34239H10.7015C10.9629 4.32341 12.655 2.75 14.7185 2.75H18.2678ZM18.2678 4.8386H14.7185C13.7968 4.8386 13.0126 5.4791 12.7925 6.34239H20.1937C19.9736 5.4791 19.1895 4.8386 18.2678 4.8386Z" fill="black"/>
</svg>
