<svg width="80" height="56" viewBox="0 0 80 56" fill="none" xmlns="http://www.w3.org/2000/svg">
<path d="M67.2 24.325C67.7125 22.9875 68 21.525 68 20C68 13.375 62.625 8 56 8C53.5375 8 51.2375 8.75 49.3375 10.025C45.875 4.025 39.4125 0 32 0C20.95 0 12 8.95 12 20C12 20.3375 12.0125 20.675 12.025 21.0125C5.025 23.475 0 30.15 0 38C0 47.9375 8.0625 56 18 56H64C72.8375 56 80 48.8375 80 40C80 32.2625 74.5 25.8 67.2 24.325ZM49.175 32H41V46C41 47.1 40.1 48 39 48H33C31.9 48 31 47.1 31 46V32H22.825C21.0375 32 20.15 29.85 21.4125 28.5875L34.5875 15.4125C35.3625 14.6375 36.6375 14.6375 37.4125 15.4125L50.5875 28.5875C51.85 29.85 50.95 32 49.175 32Z" fill="#FFD233"/>
</svg>
